# xmcd
#
# Track frame offsets: 
#        150
#        15123
#        29318
#        46122
#        59221
#        72859
#        86776
#        99750
#        112281
#        128808
#        147715
#        163776
#        184656
#
# Disc length: 2663 seconds
#
# Revision: 0
# Processed by: cddbd v1.5.2PL0 Copyright (c) Steve Scherf et al.
# Submitted via: ExactAudioCopy v1.1
#
DISCID=b40a650d
DTITLE=Gaby Moreno - Illusion
DYEAR=2016
DGENRE=Latin
TTITLE0=Nobody To Love
TTITLE1=Pale Bright Lights
TTITLE2=Love Is Gone
TTITLE3=Maldición - Bendición
TTITLE4=Fronteras
TTITLE5=O, Me
TTITLE6=Aldous
TTITLE7=Hermana Rosetta
TTITLE8=Solemncholy
TTITLE9=Down In Reverie
TTITLE10=Sálvese Quien Pueda
TTITLE11=La Malaguena
TTITLE12=Illusion
EXTD=
EXTT0=
EXTT1=
EXTT2=
EXTT3=
EXTT4=
EXTT5=
EXTT6=
EXTT7=
EXTT8=
EXTT9=
EXTT10=
EXTT11=
EXTT12=
PLAYORDER=
